<svg xmlns="http://www.w3.org/2000/svg" version="1.1" xmlns:xlink="http://www.w3.org/1999/xlink" viewBox="0 0 200 200"><rect width="200" height="200" fill="url('#gradient')"></rect><defs><linearGradient id="gradient" gradientTransform="rotate(360 0.5 0.5)"><stop offset="0%" stop-color="#000000"></stop><stop offset="100%" stop-color="#000000"></stop></linearGradient></defs><g><g fill="#f1c500" transform="matrix(6.246932409012132,0,0,6.246932409012132,5.295370791045173,144.4150651286173)" stroke="#f1c500" stroke-width="0.2"><path d="M1.07-14.22L5.58-14.22L8.75-4.33L11.91-14.22L16.43-14.22L16.43 0L12.99 0L12.99-3.32L13.32-10.12L9.88 0L7.62 0L4.17-10.13L4.50-3.32L4.50 0L1.07 0L1.07-14.22ZM29.18-12.46L22.45-2.64L29.25-2.64L29.25 0L18.17 0L18.17-1.81L24.95-11.57L18.13-11.57L18.13-14.22L29.18-14.22L29.18-12.46Z"></path></g></g></svg>